# xmcd
#
# Track frame offsets: 
#        150
#        15856
#        29581
#        53743
#        68008
#        84694
#        99332
#        117420
#        133983
#        151979
#        165228
#        179635
#        196253
#        211052
#        225724
#        239753
#
# Disc length: 3430 seconds
#
# Revision: 4
# Processed by: cddbd v1.5.2PL0 Copyright (c) Steve Scherf et al.
# Submitted via: ExactAudioCopy v1.0b3
#
DISCID=d20d6410
DTITLE=Linda Feller - Country Baladen und mehr
DYEAR=2005
DGENRE=Country
TTITLE0=Jeder Tag kann ein Anfang sein
TTITLE1=Am Ende der Straﬂe stehst du
TTITLE2=Gunter Gabriel and Linda Feller - Wenn ich nur ein Trucker w‰r
TTITLE3=Es bleibt die Liebe zu dir
TTITLE4=Tanzen mit dem Wind
TTITLE5=Nur bei dir
TTITLE6=Eiszeit im Sommer
TTITLE7=Linda Feller and Muck - Es weht ein Traum
TTITLE8=Du bist alles (und viel mehr)
TTITLE9=Wenn du alles verlierst
TTITLE10=Komm' und red' mit mir
TTITLE11=Jenseits des Horizonts
TTITLE12=Jonny Hill and Linda Feller - Darling
TTITLE13=Wir waren noch Kinder
TTITLE14=Sag' nicht (ich weiss nicht)
TTITLE15=Wenn du sagst Good Bye
EXTD=YEAR: 2005
EXTT0=
EXTT1=
EXTT2=
EXTT3=
EXTT4=
EXTT5=
EXTT6=
EXTT7=
EXTT8=
EXTT9=
EXTT10=
EXTT11=
EXTT12=
EXTT13=
EXTT14=
EXTT15=
PLAYORDER=
